# xmcd
#
# Track frame offsets:
#	150
#	13510
#	26862
#	43815
#	59042
#	74495
#	89499
#	106227
#	121680
#	137658
#	152137
#	168266
#	185505
#	201183
#	217837
#	237040
#	252418
#	269746
#	290054
#	305087
#	320691
#
# Disc length: 4493 seconds
#
# Revision: 1
# Processed by: cddbd v1.5.2PL0 Copyright (c) Steve Scherf et al.
# Submitted via: audiograbber 1.83.01
#
DISCID=43118b15
DTITLE=Various Artist - Promo Only Country Radio 2010 - 07
DYEAR=2010
DGENRE=Country
TTITLE0=Carrie Underwood - Undo it
TTITLE1=Justin Moore - How I Got to Be this Way
TTITLE2=Keith Urban - I'm in
TTITLE3=Montgomery Gentry - While You're Still Young
TTITLE4=Blake Shelton - All About Tonight
TTITLE5=Trace Adkins - This Ain't No Love Song
TTITLE6=The Band Perry - If I Die Young
TTITLE7=Williams Riley - Makes Me Go (La La)
TTITLE8=Darryl Worley - Keep the Change
TTITLE9=Bomshel - Just Fine
TTITLE10=Troy Olsen - Summer Thing
TTITLE11=Birdgette Tatum - That's Love Y'all
TTITLE12=Lathan Moore - Beautiful Girl
TTITLE13=Jewel - Satisfied
TTITLE14=Sammy Kershaw - The Snow White Rows of Arlington
TTITLE15=Jennette McCurdy - Not that Far Away
TTITLE16=Boggy Creek - Boggy Creek
TTITLE17=Keller and the Keels - Don't Cuss the Fiddle
TTITLE18=Jim van Fleet - Redneck Riviera
TTITLE19=Jeremy Parsons - Doggonest Feelin'
TTITLE20=Coldwater Canyon Band - Nobody Knows
EXTD=
EXTT0=
EXTT1=
EXTT2=
EXTT3=
EXTT4=
EXTT5=
EXTT6=
EXTT7=
EXTT8=
EXTT9=
EXTT10=
EXTT11=
EXTT12=
EXTT13=
EXTT14=
EXTT15=
EXTT16=
EXTT17=
EXTT18=
EXTT19=
EXTT20=
PLAYORDER=
